# xmcd
#
# Track frame offsets: 
#        150
#        12590
#        26203
#        37338
#        56734
#        72511
#        83415
#        93366
#        105977
#        118665
#        131229
#        141855
#        153277
#        167344
#        179279
#        191685
#        205236
#        219817
#        235589
#        248255
#
# Disc length: 3490 seconds
#
# Revision: 0
# Processed by: cddbd v1.5.2PL0 Copyright (c) Steve Scherf et al.
# Submitted via: ExactAudioCopy v0.95b4
#
DISCID=0d0da014
DTITLE=Jackie Wilson - Best Of The Original Soul Brother [CD2)
DYEAR=2006
DGENRE=Soul
TTITLE0=Reet Petite (The Finest Girl You Ever Want To Meet)
TTITLE1=My Tale Of Woe
TTITLE2=Joshua Fit The Battle Of Jerico
TTITLE3=Danny Boy
TTITLE4=No Pity (In The Naked City)
TTITLE5=Soul Time
TTITLE6=Stop Lying
TTITLE7=Brand New Thing (Pt.2)
TTITLE8=Soul Galore
TTITLE9=Since You Showed Me How To Be Happy
TTITLE10=You Can Count On Me
TTITLE11=Think Twice
TTITLE12=Haunted House
TTITLE13=For Your Precious Love
TTITLE14=Who Can I Turn To (When Nobody Needs Me)
TTITLE15=Nobody But You
TTITLE16=Just As Soon As The Feeling's Over
TTITLE17=Don't Burn No Bridges
TTITLE18=You're The Song I Can't Stop Singing
TTITLE19=I've Learned About Life
EXTD=
EXTT0=
EXTT1=
EXTT2=
EXTT3=
EXTT4=
EXTT5=
EXTT6=
EXTT7=
EXTT8=
EXTT9=
EXTT10=
EXTT11=
EXTT12=
EXTT13=
EXTT14=
EXTT15=
EXTT16=
EXTT17=
EXTT18=
EXTT19=
PLAYORDER=
